<svg xmlns="http://www.w3.org/2000/svg" viewBox="0 0 516 120" width="516" height="120" role="img" aria-label="Moon Market">
  <defs>
    <linearGradient id="moon-grad-3" x1="0" y1="0" x2="1" y2="1">
      <stop offset="0%" stop-color="#FF6BB8"/>
      <stop offset="50%" stop-color="#FF4936"/>
      <stop offset="100%" stop-color="#E89512"/>
    </linearGradient>
    <mask id="moon-mask-3">
      <rect width="480" height="120" fill="white"/>
      <circle cx="70" cy="56" r="20" fill="black"/>
    </mask>
    <linearGradient id="wm-grad" x1="0" y1="0" x2="1" y2="0">
      <stop offset="0%" stop-color="#FF6BB8"/>
      <stop offset="50%" stop-color="#FF4936"/>
      <stop offset="100%" stop-color="#E89512"/>
    </linearGradient>
  </defs>

  <!-- Mark -->
  <g transform="translate(0 0)">
    <circle cx="60" cy="60" r="52" fill="url(#moon-grad-3)" stroke="#1A0F08" stroke-width="5"/>
    <circle cx="60" cy="60" r="38" fill="#1A0F08"/>
    <circle cx="58" cy="60" r="26" fill="#FFF5E4" mask="url(#moon-mask-3)"/>
    <g transform="translate(80 60)">
      <path d="M 0,-11 Q 1.65,-1.65 11,0 Q 1.65,1.65 0,11 Q -1.65,1.65 -11,0 Q -1.65,-1.65 0,-11 Z" fill="#FFF5E4"/>
    </g>
  </g>

  <!-- Wordmark outlined to paths: "Moon" Outfit 700 (ink), "Market" Caveat 700 (gradient). Font-independent. -->
  <path d="M133.808 78.0V38.464H140.08L154.024 60.248000000000005L167.96800000000002 38.464H174.296V78.0H165.504V56.16L156.936 69.488H151.112L142.544 56.048V78.0Z M193.07600000000002 78.616Q188.876 78.616 185.488 76.74000000000001Q182.1 74.864 180.14 71.616Q178.18 68.368 178.18 64.336Q178.18 60.304 180.14 57.112Q182.1 53.92 185.45999999999998 52.044Q188.82 50.168 193.07600000000002 50.168Q197.332 50.168 200.692 52.016000000000005Q204.05200000000002 53.864000000000004 206.012 57.084Q207.972 60.304 207.972 64.336Q207.972 68.368 206.012 71.616Q204.05200000000002 74.864 200.692 76.74000000000001Q197.332 78.616 193.07600000000002 78.616ZM193.07600000000002 70.832Q194.924 70.832 196.324 70.02Q197.72400000000002 69.208 198.48000000000002 67.72399999999999Q199.23600000000002 66.24 199.23600000000002 64.336Q199.23600000000002 62.432 198.452 61.004000000000005Q197.668 59.576 196.296 58.763999999999996Q194.924 57.952 193.07600000000002 57.952Q191.28400000000002 57.952 189.88400000000001 58.763999999999996Q188.484 59.576 187.7 61.032Q186.916 62.488 186.916 64.392Q186.916 66.24 187.7 67.72399999999999Q188.484 69.208 189.88400000000001 70.02Q191.28400000000002 70.832 193.07600000000002 70.832Z M224.23200000000003 78.616Q220.032 78.616 216.644 76.74000000000001Q213.256 74.864 211.296 71.616Q209.336 68.368 209.336 64.336Q209.336 60.304 211.296 57.112Q213.256 53.92 216.61599999999999 52.044Q219.976 50.168 224.23200000000003 50.168Q228.488 50.168 231.848 52.016000000000005Q235.20800000000003 53.864000000000004 237.168 57.084Q239.12800000000001 60.304 239.12800000000001 64.336Q239.12800000000001 68.368 237.168 71.616Q235.20800000000003 74.864 231.848 76.74000000000001Q228.488 78.616 224.23200000000003 78.616ZM224.23200000000003 70.832Q226.08 70.832 227.48000000000002 70.02Q228.88000000000002 69.208 229.63600000000002 67.72399999999999Q230.39200000000002 66.24 230.39200000000002 64.336Q230.39200000000002 62.432 229.608 61.004000000000005Q228.824 59.576 227.452 58.763999999999996Q226.08 57.952 224.23200000000003 57.952Q222.44000000000003 57.952 221.04000000000002 58.763999999999996Q219.64000000000001 59.576 218.856 61.032Q218.072 62.488 218.072 64.392Q218.072 66.24 218.856 67.72399999999999Q219.64000000000001 69.208 221.04000000000002 70.02Q222.44000000000003 70.832 224.23200000000003 70.832Z M260.26 78.0V62.488Q260.26 60.36 258.944 59.044Q257.62800000000004 57.727999999999994 255.61200000000002 57.727999999999994Q254.21200000000002 57.727999999999994 253.14800000000002 58.315999999999995Q252.08400000000003 58.903999999999996 251.46800000000002 59.995999999999995Q250.85200000000003 61.088 250.85200000000003 62.488V78.0H242.28400000000002V50.784H250.85200000000003V52.912Q251.74800000000002 52.128 252.86800000000002 51.512Q255.33200000000002 50.224000000000004 258.468 50.224000000000004Q261.492 50.224000000000004 263.81600000000003 51.652Q266.14000000000004 53.08 267.48400000000004 55.432Q268.82800000000003 57.784 268.82800000000003 60.584V78.0Z" fill="#1A0F08"/>
  <path d="M322.6 85.456Q322.312 85.744 321.23199999999997 85.636Q320.152 85.528 319.504 84.592Q319.0 83.584 318.928 82.28800000000001Q318.856 80.992 318.928 78.688Q319.36 76.168 320.368 72.06400000000001Q321.376 67.96000000000001 322.63599999999997 62.88400000000001Q323.896 57.80800000000001 325.192 52.480000000000004Q325.84 49.96 326.236 48.232Q326.632 46.504000000000005 326.848 45.568000000000005L326.992 44.704Q326.92 44.848000000000006 326.812 44.992000000000004Q326.704 45.136 326.632 45.28L326.272 46.072Q325.984 46.576 325.192 47.800000000000004Q324.616 48.664 324.11199999999997 49.816Q323.608 50.968 322.384 52.84Q321.23199999999997 55.0 319.792 57.808Q318.352 60.616 317.344 62.272000000000006Q316.84 63.064 316.44399999999996 63.64Q316.048 64.21600000000001 315.904 64.576Q315.616 65.368 314.96799999999996 66.52Q314.32 67.672 313.456 68.752Q313.024 69.4 312.34000000000003 70.26400000000001Q311.656 71.128 311.152 71.776L310.648 72.496Q310.504 72.928 309.712 73.864Q308.92 74.8 307.804 75.916Q306.688 77.032 305.536 77.968Q303.016 79.984 301.396 80.488Q299.776 80.992 297.688 79.264Q296.752 78.112 296.17600000000004 76.924Q295.6 75.736 295.6 73.648Q295.6 71.56 296.32 67.816Q296.824 65.44 297.43600000000004 62.775999999999996Q298.048 60.112 298.696 57.628Q299.344 55.144000000000005 299.884 53.30800000000001Q300.424 51.472 300.64 50.752Q300.856 48.952000000000005 300.712 48.808Q300.712 48.808 300.712 48.808Q300.568 48.808 299.992 49.672000000000004Q299.488 50.464 298.12 52.984Q296.752 55.504000000000005 295.06 58.888000000000005Q293.368 62.272000000000006 291.784 65.656Q288.832 71.128 286.81600000000003 74.8Q284.8 78.472 283.504 80.668Q282.208 82.864 281.524 83.98Q280.84 85.096 280.51599999999996 85.564Q280.192 86.032 280.048 86.176Q278.968 86.104 278.17600000000004 85.168Q277.384 84.232 276.88 82.936Q276.736 82.216 276.664 81.424Q276.592 80.632 276.844 79.66Q277.096 78.688 277.672 77.536Q278.608 75.664 279.472 74.368Q280.336 73.072 280.552 72.784Q280.912 72.28 281.128 71.70400000000001Q281.344 71.128 281.416 70.624Q281.776 70.19200000000001 282.53200000000004 68.82400000000001Q283.288 67.456 284.08 65.872Q284.656 64.936 285.664 63.24400000000001Q286.672 61.55200000000001 287.824 59.572Q288.976 57.592 289.84 55.93600000000001Q293.008 50.248000000000005 294.88 46.828Q296.752 43.408 297.544 42.472Q298.048 42.112 298.44399999999996 41.068Q298.84 40.024 299.128 39.52Q300.136 37.504000000000005 301.18 36.172000000000004Q302.224 34.84 303.016 34.84Q303.592 34.84 304.49199999999996 35.272000000000006Q305.392 35.704 306.256 36.496Q307.048 37.432 307.73199999999997 38.980000000000004Q308.416 40.528000000000006 307.984 43.048Q307.912 44.2 307.624 45.82000000000001Q307.336 47.440000000000005 307.048 49.024Q306.76 50.608000000000004 306.472 51.688Q305.896 54.928 305.212 57.844Q304.528 60.760000000000005 303.952 63.208000000000006Q303.376 65.656 303.01599999999996 67.492Q302.656 69.328 302.548 70.48Q302.44 71.632 302.8 71.992Q303.016 72.064 303.41200000000003 71.812Q303.808 71.56 304.024 71.272Q304.456 70.696 304.81600000000003 70.12Q305.176 69.544 305.752 68.68Q306.904 67.096 308.164 65.188Q309.424 63.28 311.188 60.436Q312.952 57.592 315.4 53.379999999999995Q317.848 49.168 321.376 42.904Q323.032 40.384 324.544 37.864000000000004Q326.056 35.344 327.28 33.976000000000006Q328.36 32.824000000000005 329.98 33.184000000000005Q331.6 33.544000000000004 332.968 34.98400000000001Q334.336 36.42400000000001 334.48 38.512Q334.552 39.52 334.084 42.07600000000001Q333.616 44.632000000000005 332.82399999999996 47.800000000000004Q332.032 50.968 331.024 53.992000000000004Q330.808 55.216 330.304 57.232Q329.8 59.248000000000005 329.22400000000005 61.336000000000006Q328.648 63.42400000000001 328.144 65.08Q327.64 67.528 327.31600000000003 68.968Q326.992 70.408 326.992 72.28Q326.344 73.432 326.128 75.592Q325.912 77.752 325.912 80.056Q325.624 82.864 324.72400000000005 84.016Q323.824 85.168 323.536 85.096Q322.96 84.88 322.6 85.456Z M335.416 80.488Q335.128 79.912 334.156 79.33600000000001Q333.184 78.76 333.184 78.47200000000001Q333.184 78.184 332.86 77.572Q332.536 76.96 332.248 76.672Q331.888 76.24 332.464 74.548Q333.04 72.856 334.192 70.408Q335.344 67.96000000000001 336.712 65.44Q337.288 64.864 337.86400000000003 63.928000000000004Q338.44 62.992000000000004 338.728 62.704Q338.728 62.416 338.944 62.164Q339.16 61.912000000000006 339.448 61.912000000000006L340.024 60.760000000000005Q340.168 60.472 340.924 59.608000000000004Q341.68 58.744 342.76 57.7Q343.84 56.656000000000006 344.956 55.720000000000006Q346.072 54.784000000000006 346.792 54.352000000000004Q348.304 53.344 349.924 53.416Q351.544 53.488 352.696 54.42400000000001Q352.912 54.64 353.668 55.288000000000004Q354.424 55.93600000000001 355.39599999999996 56.72800000000001Q356.368 57.52 357.088 58.168000000000006L359.752 60.544L358.528 64.144Q357.592 67.024 358.06 69.184Q358.528 71.344 359.392 72.928Q359.752 73.72 360.36400000000003 74.152Q360.976 74.584 361.984 74.728Q362.56 74.8 363.06399999999996 75.16Q363.568 75.52 363.568 76.312Q363.568 78.04 362.956 78.796Q362.344 79.552 361.624 79.696Q359.248 79.984 357.08799999999997 79.19200000000001Q354.928 78.4 353.2 75.088Q352.912 74.656 352.44399999999996 73.468Q351.976 72.28 351.904 71.92Q351.616 72.28 351.148 72.82Q350.68 73.36 350.248 73.792Q345.136 78.976 341.5 80.524Q337.864 82.072 335.416 80.488ZM339.376 74.512Q339.88 74.584 340.96000000000004 73.97200000000001Q342.04 73.36 343.84 71.92Q346.288 69.832 347.872 68.464Q349.456 67.096 350.968 64.936L352.552 62.344Q351.832 60.688 351.256 60.184000000000005Q350.68 59.68000000000001 350.104 59.68000000000001Q349.168 59.68000000000001 347.872 60.868Q346.576 62.056 344.956 64.324Q343.336 66.592 341.32 69.976Q340.384 71.56 339.88 73.0Z M367.168 80.056Q366.52000000000004 79.552 365.764 78.76Q365.00800000000004 77.968 365.22400000000005 76.528Q365.44 74.512 365.8 72.964Q366.16 71.416 366.66400000000004 69.4Q366.80800000000005 68.536 367.4200000000001 66.44800000000001Q368.03200000000004 64.36 368.8960000000001 61.912Q369.76000000000005 59.464 370.696 57.268Q371.632 55.072 372.35200000000003 53.992000000000004Q373.144 53.272000000000006 374.692 53.272000000000006Q376.24 53.272000000000006 376.81600000000003 53.848Q377.608 54.496 377.32000000000005 56.116Q377.03200000000004 57.736000000000004 375.30400000000003 61.120000000000005Q374.944 61.984 374.404 62.956Q373.86400000000003 63.928 373.648 64.504Q373.504 64.936 373.648 65.08Q373.648 65.08 373.79200000000003 65.08Q374.22400000000005 64.288 375.37600000000003 63.244Q376.528 62.2 377.824 61.192Q379.12 60.184 380.27200000000005 59.391999999999996Q381.42400000000004 58.6 381.856 58.384Q382.432 58.024 383.188 57.772000000000006Q383.944 57.52 384.232 57.376000000000005Q385.88800000000003 56.584 387.86800000000005 56.764Q389.848 56.944 390.28000000000003 58.024Q390.35200000000003 58.6 390.784 58.888000000000005L391.144 59.176Q391.432 59.176 391.504 59.392V59.608000000000004Q391.504 60.112 390.53200000000004 61.048Q389.56 61.984 388.408 62.056Q387.47200000000004 62.128 386.75200000000007 62.416Q386.03200000000004 62.704 385.024 63.136Q382.288 64.72 380.092 65.944Q377.896 67.168 375.59200000000004 69.688Q375.088 70.264 374.51200000000006 70.768Q373.93600000000004 71.272 373.36 72.208Q373.0 72.568 372.64 73.792Q372.28000000000003 75.016 372.028 76.132Q371.776 77.248 371.776 77.464L371.56 78.112Q371.34400000000005 78.832 370.84000000000003 79.48Q369.976 80.632 369.148 80.92Q368.32000000000005 81.208 367.168 80.056Z M393.59200000000004 81.496Q392.51200000000006 81.136 391.6840000000001 80.344Q390.85600000000005 79.552 391.00000000000006 77.752Q391.14400000000006 76.672 391.432 75.48400000000001Q391.72 74.296 392.15200000000004 73.144Q392.36800000000005 71.848 392.692 70.55199999999999Q393.016 69.256 393.80800000000005 68.104Q394.744 65.44 395.75200000000007 62.812Q396.76000000000005 60.184 397.48 57.304Q398.56000000000006 54.712 399.46000000000004 52.696000000000005Q400.36 50.68000000000001 401.65600000000006 47.512Q402.37600000000003 45.856 402.91600000000005 43.804Q403.456 41.752 404.60800000000006 40.168000000000006Q405.112 39.52 405.36400000000003 39.05200000000001Q405.61600000000004 38.584 405.90400000000005 38.152Q406.408 37.144000000000005 407.452 37.21600000000001Q408.49600000000004 37.288000000000004 408.85600000000005 37.792Q410.08000000000004 38.29600000000001 410.58400000000006 39.628Q411.088 40.96 410.944 41.536Q410.944 42.328 410.36800000000005 43.264Q410.08000000000004 43.552 409.79200000000003 44.092Q409.504 44.632000000000005 408.92800000000005 45.496L408.35200000000003 47.368Q408.064 48.304 407.70400000000006 49.096000000000004Q407.34400000000005 49.888000000000005 406.91200000000003 50.68000000000001Q406.48 51.472 406.336 51.976Q405.68800000000005 53.632000000000005 404.932 55.18000000000001Q404.17600000000004 56.728 403.6 58.456Q403.02400000000006 60.112 402.37600000000003 61.912000000000006Q402.37600000000003 62.056 402.30400000000003 62.128Q402.37600000000003 62.128 402.44800000000004 62.056Q403.02400000000006 61.55200000000001 403.528 61.120000000000005Q404.68000000000006 60.400000000000006 406.08400000000006 59.356Q407.48800000000006 58.312 408.82000000000005 57.232Q410.15200000000004 56.152 411.052 55.36Q411.95200000000006 54.568 412.168 54.352000000000004Q412.384 54.06400000000001 413.06800000000004 53.992000000000004Q413.75200000000007 53.92 414.40000000000003 54.208Q415.264 54.42400000000001 415.80400000000003 55.144000000000005Q416.34400000000005 55.864000000000004 416.34400000000005 57.16Q416.56000000000006 57.952 415.4440000000001 59.068Q414.32800000000003 60.184 412.672 61.264Q412.09600000000006 61.624 411.124 62.344Q410.15200000000004 63.064 409.432 63.712Q408.92800000000005 64.0 407.956 64.684Q406.98400000000004 65.368 406.264 66.016Q405.68800000000005 66.376 404.968 67.24000000000001Q404.824 67.384 404.75200000000007 67.528Q405.25600000000003 68.392 405.54400000000004 68.68Q407.20000000000005 71.128 408.1360000000001 72.64Q409.07200000000006 74.152 409.7560000000001 75.088Q410.44000000000005 76.024 411.30400000000003 76.744Q412.168 77.464 413.53600000000006 78.256Q413.75200000000007 78.4 413.9680000000001 78.94Q414.184 79.48 414.112 80.056Q413.968 80.92 413.068 81.46000000000001Q412.168 82.0 410.08000000000004 82.144Q408.92800000000005 82.0 408.35200000000003 81.676Q407.776 81.352 406.192 80.2Q405.32800000000003 79.336 404.03200000000004 77.536Q402.73600000000005 75.736 401.44000000000005 73.648Q400.36 71.992 399.49600000000004 70.696Q399.208 71.488 398.992 72.136Q398.56000000000006 73.21600000000001 398.56000000000006 73.504Q398.05600000000004 75.088 397.76800000000003 76.636Q397.48 78.184 396.83200000000005 79.336Q396.83200000000005 81.064 395.8960000000001 81.496Q394.96000000000004 81.928 393.59200000000004 81.496Z M425.92 83.296Q421.96000000000004 83.296 419.836 80.992Q417.71200000000005 78.688 417.71200000000005 73.936Q417.71200000000005 71.344 418.6840000000001 68.24799999999999Q419.65600000000006 65.152 421.27600000000007 62.2Q422.896 59.248000000000005 424.84000000000003 57.05200000000001Q426.78400000000005 54.856 428.728 53.992000000000004Q429.44800000000004 53.632000000000005 430.27600000000007 53.452000000000005Q431.10400000000004 53.272000000000006 431.896 53.272000000000006Q432.76000000000005 53.272000000000006 433.80400000000003 53.38Q434.848 53.488 435.78400000000005 53.848Q437.44000000000005 54.352000000000004 438.70000000000005 55.792Q439.96000000000004 57.232 439.96000000000004 59.968Q439.96000000000004 60.688 439.81600000000003 61.516000000000005Q439.672 62.344 439.312 63.136Q438.37600000000003 65.512 436.4680000000001 67.672Q434.56000000000006 69.832 432.47200000000004 70.696Q431.896 70.984 431.356 71.092Q430.81600000000003 71.2 430.24 71.2Q428.728 71.2 427.54 70.768Q426.35200000000003 70.336 425.34400000000005 69.616L424.76800000000003 69.112L424.408 69.832Q423.90400000000005 71.2 423.72400000000005 72.136Q423.54400000000004 73.072 423.54400000000004 73.504Q423.54400000000004 74.368 423.61600000000004 75.268Q423.68800000000005 76.168 424.04800000000006 76.744Q424.336 77.104 424.80400000000003 77.32Q425.27200000000005 77.536 425.992 77.536Q426.42400000000004 77.536 426.82000000000005 77.5Q427.216 77.464 427.504 77.392Q428.8 77.104 429.62800000000004 76.42Q430.456 75.736 431.39200000000005 75.232L431.68000000000006 75.088L431.60800000000006 74.872Q432.83200000000005 74.224 433.264 74.04400000000001Q433.696 73.864 433.91200000000003 73.72Q434.20000000000005 73.432 434.56000000000006 73.432Q435.56800000000004 73.288 436.5400000000001 73.97200000000001Q437.51200000000006 74.656 437.51200000000006 75.664Q437.51200000000006 76.096 436.90000000000003 77.03200000000001Q436.288 77.968 435.38800000000003 78.868Q434.48800000000006 79.768 433.552 80.272Q433.336 80.344 433.12 80.452Q432.90400000000005 80.56 432.68800000000005 80.704H432.76000000000005Q432.112 81.568 431.46400000000006 81.568H430.88800000000003Q430.6 82.072 429.016 82.684Q427.432 83.296 425.92 83.296ZM429.66400000000004 65.944Q430.312 65.944 430.85200000000003 65.72800000000001Q431.39200000000005 65.512 431.896 65.224Q433.624 64.0 434.12800000000004 62.056Q434.63200000000006 60.112 433.76800000000003 59.104Q433.624 58.888000000000005 433.408 58.78Q433.192 58.672 432.90400000000005 58.672Q432.112 58.672 431.14 59.176Q430.168 59.68000000000001 429.232 60.61600000000001Q428.29600000000005 61.55200000000001 427.504 62.848L426.56800000000004 64.36Q426.71200000000005 64.288 426.82000000000005 64.25200000000001Q426.92800000000005 64.21600000000001 427.00000000000006 64.21600000000001Q427.648 64.21600000000001 427.86400000000003 64.648Q428.08000000000004 65.08 428.404 65.512Q428.728 65.944 429.66400000000004 65.944Z M449.39200000000005 86.32Q445.86400000000003 86.248 444.89200000000005 84.34Q443.92 82.432 444.35200000000003 79.552Q444.78400000000005 78.184 444.89200000000005 77.068Q445.00000000000006 75.952 445.504 75.664L445.648 75.44800000000001Q445.72 75.232 445.504 75.016Q445.504 74.08 446.15200000000004 72.424Q446.29600000000005 71.992 446.58400000000006 71.344L446.8 70.768Q446.44000000000005 70.19200000000001 446.80000000000007 69.83200000000001Q447.16 69.47200000000001 447.59200000000004 69.112Q447.73600000000005 68.968 447.73600000000005 68.824Q447.80800000000005 68.608 447.59200000000004 68.392Q447.44800000000004 68.104 447.952 67.06Q448.456 66.016 449.10400000000004 64.864Q449.752 63.712 449.968 63.064Q449.968 62.92 450.32800000000003 62.056Q450.68800000000005 61.192 451.192 60.040000000000006Q451.696 58.888000000000005 452.20000000000005 57.952L452.776 56.728Q453.064 56.584 453.064 56.512Q452.992 56.29600000000001 452.20000000000005 56.224000000000004Q450.90400000000005 56.08 449.46400000000006 56.152Q447.232 56.08 445.90000000000003 55.936Q444.56800000000004 55.792 443.70400000000006 55.288Q442.84000000000003 54.28 443.48800000000006 52.876000000000005Q444.136 51.472 445.576 51.400000000000006Q446.51200000000006 51.328 447.052 51.328Q447.59200000000004 51.328 448.4920000000001 51.22Q449.39200000000005 51.112 451.336 50.896L455.00800000000004 50.608000000000004L455.22400000000005 49.384Q455.8 48.448 456.016 48.16Q456.232 47.872 456.30400000000003 47.548Q456.37600000000003 47.224000000000004 456.52000000000004 46.36L457.168 45.136Q457.81600000000003 43.984 457.96000000000004 42.688Q458.824 41.248000000000005 459.47200000000004 40.06Q460.12000000000006 38.872 460.264 38.584Q461.48800000000006 36.784000000000006 462.67600000000004 36.64Q463.86400000000003 36.496 464.944 37.216Q465.59200000000004 37.576 466.168 38.116Q466.744 38.656000000000006 466.88800000000003 39.48400000000001Q467.03200000000004 40.312000000000005 466.24 41.608000000000004Q466.09600000000006 41.896 465.80800000000005 42.652Q465.52000000000004 43.408 465.37600000000003 43.912000000000006Q464.944 44.416000000000004 464.332 45.532000000000004Q463.72 46.648 463.504 47.800000000000004Q462.92800000000005 49.024 462.78400000000005 49.312Q462.64000000000004 49.6 462.35200000000003 49.6Q462.49600000000004 50.32000000000001 463.216 50.284000000000006Q463.93600000000004 50.248000000000005 465.59200000000004 50.176Q466.96000000000004 50.032000000000004 467.5 49.852000000000004Q468.04 49.672000000000004 468.76000000000005 50.032000000000004Q469.12 50.536 469.156 51.508Q469.192 52.480000000000004 468.904 53.38Q468.61600000000004 54.28 468.112 54.496Q467.75200000000007 54.496 466.6360000000001 54.891999999999996Q465.52000000000004 55.288 463.86400000000003 55.36L460.04800000000006 55.72L458.824 58.168000000000006Q458.32000000000005 59.104 457.96000000000004 59.86Q457.6 60.616 457.456 60.760000000000005Q457.456 61.192 456.98800000000006 62.056Q456.52000000000004 62.92 456.016 63.928Q455.58400000000006 65.152 455.08000000000004 66.16L454.504 67.168Q454.216 67.168 454.216 67.6Q454.576 68.464 454.00000000000006 68.896Q453.64000000000004 69.112 453.42400000000004 69.47200000000001L453.136 69.904Q453.42400000000004 70.19200000000001 453.244 70.624Q453.064 71.056 452.776 71.56Q452.776 72.136 452.452 73.21600000000001Q452.12800000000004 74.296 451.76800000000003 75.232Q451.84000000000003 76.528 451.91200000000003 76.888Q451.98400000000004 77.104 452.05600000000004 77.176Q452.12800000000004 77.176 452.27200000000005 77.176Q452.63200000000006 77.248 453.2800000000001 77.176Q453.92800000000005 77.104 454.216 77.104Q454.36 77.032 454.432 77.104Q455.00800000000004 77.392 453.208 82.144Q452.05600000000004 83.944 450.904 85.132Q449.752 86.32 449.39200000000005 86.32Z" fill="url(#wm-grad)"/>
</svg>
